<svg xmlns="http://www.w3.org/2000/svg" width="50" height="50" viewBox="0 0 50 50">
  <g id="Ig" transform="translate(-463 -27)">
    <circle id="Ellipse_6" data-name="Ellipse 6" cx="25" cy="25" r="25" transform="translate(463 27)" fill="#16202a"/>
    <g id="Group_13" data-name="Group 13" transform="translate(474.735 39.249)">
      <path id="Path_13" data-name="Path 13" d="M46.226,26.356a13.937,13.937,0,0,0-.99-4.882,5.518,5.518,0,0,0-3.467-3.4,7.782,7.782,0,0,0-2.193-.283l-13.725-.5H24.789a3.679,3.679,0,0,0-1.273.707c-1.556,1.2-3.679,3.679-3.679,5.8-.071,4.669-.071,9.339-.141,13.937a3.75,3.75,0,0,0,.212,1.556,5.094,5.094,0,0,0,.778,1.344,19.385,19.385,0,0,0,3.608,3.184,6.226,6.226,0,0,0,1.839.849h1.415l9.48-.212a15.282,15.282,0,0,0,3.608-.424,10.117,10.117,0,0,0,4.74-2.971,4.669,4.669,0,0,0,.849-1.2,4.669,4.669,0,0,0,.212-1.7C46.509,34.279,46.509,30.318,46.226,26.356ZM43.679,36.685a6.863,6.863,0,0,1-.212,1.273,3.4,3.4,0,0,1-.637.99,8.348,8.348,0,0,1-3.75,2.476,9.834,9.834,0,0,1-2.9.283l-7.429.212H27.619a3.537,3.537,0,0,1-1.486-.637,13.8,13.8,0,0,1-2.83-2.547,2.688,2.688,0,0,1-.637-1.061,3.325,3.325,0,0,1-.141-1.2c0-3.679.071-7.358.071-11.037,0-1.627,1.7-3.608,2.9-4.528a2.193,2.193,0,0,1,1.061-.566h.849l10.754.354a13.442,13.442,0,0,1,1.769.212,4.669,4.669,0,0,1,2.759,2.547,10.329,10.329,0,0,1,.778,3.891C43.679,30.459,43.679,33.572,43.679,36.685Z" transform="translate(-19.685 -17.3)" fill="#e1dab9"/>
      <path id="Path_14" data-name="Path 14" d="M35.545,27.5a7.222,7.222,0,0,0-5.377,3.254c-.212.354-2.264,3.537-.707,6.933a6.932,6.932,0,0,0,13.23-2.83A7.405,7.405,0,0,0,35.545,27.5Zm.071,11.39a4.316,4.316,0,0,1-3.184-1.981,4.528,4.528,0,0,1-.424-4.174,4.174,4.174,0,0,1,4.6-2.264,4.245,4.245,0,0,1,3.325,3.962,4.457,4.457,0,0,1-4.316,4.457Z" transform="translate(-22.375 -20.283)" fill="#e1dab9"/>
      <path id="Path_15" data-name="Path 15" d="M48.349,26.149a1.486,1.486,0,0,0-.778-1.132,1.769,1.769,0,0,0-1.486-.071,1.486,1.486,0,0,0-.707,1.7,1.556,1.556,0,0,0,1.486,1.132,1.627,1.627,0,0,0,1.486-1.627Z" transform="translate(-27.184 -19.499)" fill="#e1dab9"/>
    </g>
  </g>
</svg>
