<svg xmlns="http://www.w3.org/2000/svg" xmlns:xlink="http://www.w3.org/1999/xlink" width="1440" height="257" viewBox="0 0 1440 257">
  <defs>
    <clipPath id="clip-path">
      <rect id="Rectangle_1" data-name="Rectangle 1" width="1440" height="257" transform="translate(0 89)" fill="#ffdf94" stroke="#707070" stroke-width="1"/>
    </clipPath>
  </defs>
  <g id="Nav_rect" data-name="Nav rect" transform="translate(0 -89)" clip-path="url(#clip-path)">
    <path id="Path_1" data-name="Path 1" d="M-2059.067,167a11.825,11.825,0,0,1,5.017-9.633c7.462-5.52,39.6-11.424,70.8-5.034,36.6,7.745,53.2,22.654,60.4,37.369-.4.387,35.2-13.747,49.917,16.539,0,.516,1.783-9.665,18.667-4.647,0,.3,1.862-10.638,10.117-16.248,5.522-3.758,15.411-4.936,25.617,3.34,1.6,1.549,19.933-6.347,58.866,10.176,1.067.516,17.067-6.326,27.733,9.81.533.516,26.667-9.143,30.933-2.431-.332.642,10.133-23.572,17.067-27.839s21.85-10.21,32.333,10.283c.533-.516,28.267-12.908,40,0,0,.342,11.45-33.787,75.64-39.584,48.61-1.755,68.21,7.83,81.694,26.159-.334,0,4.317-25.494,30.769-35.074,20.947-6.1,38.847-4.506,51.9,9.257.533,1.549,4.9-8.423,23.75-6.793-.681,0,35.065-40.436,82.4-23.671,32,14.715,40.2,30.593,36.117,59.12,1.067,1.549,30.933-9.294,44.267,17.039.533-.516,36.8-17.039,57.6,0-.533-1.549,12.267-17.555,25.067-17.039.533,1.033.267-50.342,52.533-43.114-.667-.645,9.017-15.28,27.674-7.5,11.343,5.188,12.393,11.562,11.793,32.279-.533,0,14.933,3.1,13.867,12.392.686.332,10.533-38.709,58.048-27.484,33.885,15.3,31.485,32.535,23.552,58.464-1.6.516,18.667-6.2,19.2,8.261.533.516,15.467-16.006,30.4-3.614.339.984,11.383-25.349,40-9.492,9.036,3.474,26.582,17.253,15.065,41.246-1.6-1.033,57.6-23.235,75.733,32.529-.729.705,20.188-43.149,66.156-51.644,21.075-3.895,67.627,1.027,79.977,19.115.533.516,9.067-4.647,14.4,5.68.994.321,20.25-13.941,44.278-6.011,14.972,6.786,21.008,13.936,22.372,38.153-.581.563,2.7-5.467,10.2-7.939,5.729-1.89,15.9-.643,15.417,2.646-1.6-.516.267-18.588,16.8-19.621,0-.683-23.667-43.291,9.1-75.072,24.733-21.32,57.533-26.742,80.933-5.831.867.71,118.8-99.232,216.3,13.07,1.5.387,9.9-6.906,32.7-6.97-.1-1.549,0-235.447,0-235.447H-2070.6V161.318Z" transform="translate(2050.6 57.8)" fill="#7e5455"/>
  </g>
</svg>
