<svg xmlns="http://www.w3.org/2000/svg" width="1440" height="1309.938" viewBox="0 0 1440 1309.938">
  <g id="NFT_bg" data-name="NFT bg" transform="translate(0 -1530.4)">
    <path id="Path_34" data-name="Path 34" d="M0,3.438C0,.313.938,0,3.75,0h1432.5c3.125,0,3.75.938,3.75,3.75V260.937l-21.875,8.125a7.5,7.5,0,0,0-2.5,2.813c-2.812,5-5.937,9.687-5.937,15.937s-2.5,5-4.062,7.5a3.126,3.126,0,0,1-1.25,1.562c-2.812.938-1.875,6.875-5.937,5s-5.312-2.187-7.812-3.75a70.636,70.636,0,0,1-9.687-7.188,1.875,1.875,0,0,0-2.813-.312c-1.25.625-.937,1.875-.625,3.125,1.563,8.75,3.438,17.5,5,26.563a72.507,72.507,0,0,1,1.25,14.375c-.312,12.5.313,25.313,1.25,37.813a37.5,37.5,0,0,1,0,5.938c-1.563-.938-1.563-2.5-1.875-3.75-3.437-15.312-7.812-30.625-11.875-45.937-2.188-7.812-5.313-14.062-12.812-17.812l-7.5-5c-1.562-1.563-3.125-1.563-3.75.938a5.313,5.313,0,0,1-6.563,3.75c-7.187-1.25-14.375,7.188-15.312,12.813a9.374,9.374,0,0,1-.625,4.063c-2.188,3.75-4.063,4.375-8.125,2.813l-5.312-2.812a10.312,10.312,0,0,0-8.125-.625,74.372,74.372,0,0,0-14.062,4.688,12.5,12.5,0,0,0-7.5,10c-.937,6.25-1.25,12.813-1.875,19.375a10.938,10.938,0,0,0,1.563,7.5,58.125,58.125,0,0,1,8.125,19.375,38.131,38.131,0,0,1,0,10.313c0,4.688,0,9.688-.312,14.375a24.383,24.383,0,0,1-1.25,8.125,46.9,46.9,0,0,1-.625-6.25,214.01,214.01,0,0,0-4.062-24.688,12.5,12.5,0,0,0-3.125-5.625,95.936,95.936,0,0,1-13.437-21.562A16.562,16.562,0,0,1,1265,350.938a29.063,29.063,0,0,0-2.813-21.562,42.182,42.182,0,0,0-6.25-8.437A6.562,6.562,0,0,0,1250,320c-5,.312-10,1.25-15.312,1.25A95.937,95.937,0,0,1,1186.563,310a6.875,6.875,0,0,0-8.438,1.25c-5.937,4.375-8.75,10.937-12.812,16.875.937-7.5,2.188-14.687,3.75-21.875a4.688,4.688,0,0,0-3.125-5.937c-7.5-3.437-7.187-3.75-10.312,3.75a75,75,0,0,0-5,16.25,108.121,108.121,0,0,1-9.375,27.813,96.838,96.838,0,0,0-4.062,12.5l-2.5,8.75a38.121,38.121,0,0,1,.313-13.437c1.25-12.812,2.188-25.625,2.188-38.75a143.424,143.424,0,0,1,1.25-23.125c.625-5,0-5.625-4.688-7.188a433.441,433.441,0,0,0-86.25-20.625,9.687,9.687,0,0,0-11.25,9.375c-.313,8.437-4.063,15.313-6.875,22.5a77.5,77.5,0,0,0-6.875,26.563c-.312.938,0,2.188-1.562,3.438V318.75a83.437,83.437,0,0,0-.937-17.5,10.312,10.312,0,0,0-3.437-8.125c-7.188-4.687-9.063-11.875-10.313-19.062a9.375,9.375,0,0,0-5.625-7.5l-3.437-2.187c-5.937-3.75-6.25-3.75-11.563.938a7.187,7.187,0,0,1-5,1.25h-11.25c-5.313.313-10.312,1.563-11.875,8.125A9.375,9.375,0,0,1,953.75,280a21.562,21.562,0,0,0-7.813,15.312,140.619,140.619,0,0,0-2.5,15.938A30.313,30.313,0,0,1,935,327.188c-6.563,7.5-7.5,16.25-7.813,25.625s0,15.625-.937,23.438a60.94,60.94,0,0,1-1.875-7.187A63.126,63.126,0,0,0,906.563,335a38.438,38.438,0,0,1-10.625-23.437,55,55,0,0,0-10-25c-2.188-3.75-6.562-5.625-10.312-7.813L862.5,270.625a36.875,36.875,0,0,0-15.312-3.75,138.127,138.127,0,0,0-25.312,1.875,105,105,0,0,1-35.625,0c-10-1.875-20-.625-30,0a13.75,13.75,0,0,0-9.062,3.438,42.812,42.812,0,0,1-19.687,9.375,13.438,13.438,0,0,0-7.5,5,45.938,45.938,0,0,0-10.312,19.688,86.563,86.563,0,0,0-3.438-20c-.312-1.875-.312-3.75-2.5-4.063a4.375,4.375,0,0,0-4.375,2.5,105,105,0,0,0-14.687,26.563c-3.438,10-6.563,20-10.625,29.688A106.879,106.879,0,0,0,668.75,365a9.375,9.375,0,0,1-1.563,4.688,14.063,14.063,0,0,1-1.25-7.813c0-12.812-1.25-25.625-1.25-38.437a157.8,157.8,0,0,1,1.875-21.25,34.364,34.364,0,0,0,.625-5.625c0-7.187-4.062-11.25-11.25-10s-19.687,3.125-29.062,8.125a80.938,80.938,0,0,1-37.187,9.375,13.437,13.437,0,0,0-5,.313,13.75,13.75,0,0,1-14.062-2.5A11.875,11.875,0,0,0,560.938,300c-11.25,2.188-22.812,2.813-34.375,4.375a24.062,24.062,0,0,1-12.5-.313c-1.25-.625-2.5.313-3.437,1.25a37.5,37.5,0,0,0-6.875,7.188c-4.375,6.875-11.25,10.938-18.125,14.688a14.688,14.688,0,0,0-5.937,5.625,149.059,149.059,0,0,0-11.25,19.375,25.625,25.625,0,0,1-10.625,10.937,18.125,18.125,0,0,0-8.437,10.938c-1.25,4.063-2.812,8.125-4.375,11.875a56.876,56.876,0,0,0-2.812,29.688v5.313c-5-7.812-7.187-16.563-10.937-24.687,0-.625-.313-1.25,0-1.875,2.187-11.875,2.5-24.062,9.375-34.687a14.687,14.687,0,0,0,0-16.562c-3.437-5.625-7.5-9.375-14.687-9.063-13.437.625-14.687-.312-18.125-13.125-1.875-6.875-11.25-12.812-19.062-12.187L382.188,310a22.5,22.5,0,0,1-12.812-1.562,76.875,76.875,0,0,0-21.875-6.563,43.126,43.126,0,0,1-10.625-3.75c-.625-.312-1.25-.625-1.25-.938s-5-3.437-8.437-3.125l-10,1.563a3.438,3.438,0,0,1-2.5,0c-8.125-3.75-17.188-6.875-22.5-14.687a8.75,8.75,0,0,0-7.5-3.437,74.062,74.062,0,0,0-21.875,4.688A25,25,0,0,1,253.438,285c-5.937.313-9.375,4.063-12.812,8.75L223.75,317.5a50.625,50.625,0,0,0-5.937,11.563c-.313,1.25-.625,3.125-2.188,3.125s-2.187-1.562-3.125-2.812l-.625-1.25c-5.625-11.875-13.75-22.5-20.312-34.062l-.625-.938c-1.25-1.562-1.875-4.062-4.062-3.75s-2.188,2.813-3.125,4.375c-6.875,13.438-10,28.438-13.125,43.125-5,20.938-7.187,42.188-11.25,63.438a78.426,78.426,0,0,1-1.25,8.438l-.625-.625c.313-14.063-1.25-27.813-2.187-41.875A501.24,501.24,0,0,0,150,313.125c-2.187-13.125-2.812-26.562-7.5-39.375-.937-2.187-1.562-4.375-2.5-6.25s-1.25-2.813-2.813-2.187-8.75.313-13.125,2.5a10,10,0,0,0-5.937,7.813c-.625,3.438-2.813,4.063-5.625,5a4.375,4.375,0,0,1-5.312-2.187,11.563,11.563,0,0,0-8.75-4.375A73.126,73.126,0,0,1,80,271.25a4.375,4.375,0,0,0-3.438-.313,36.875,36.875,0,0,0-19.687,15.938c-3.437,6.25-7.812,11.875-11.562,17.813-7.5,11.875-10,25.312-12.187,39.375C32.5,347.5,32.5,350.938,31.875,355a8.125,8.125,0,0,1-2.5-5.938c-1.562-17.5-2.187-35-2.187-52.187V295c0-9.375-5.625-10.937-13.125-8.437s-6.875,3.75-11.25,2.188-1.875.625-1.875,1.563v5.313" transform="translate(0 2419.4)" fill="#960e12"/>
    <path id="Path_33" data-name="Path 33" d="M-2054,2028.587s58.716-37.892,196.007-37.892,259.466,45.525,409.53,50.639,165.5-20.14,291.141-44.692,162.962-33.9,302.819-38.363,240.5,22.058,240.5,22.058V960.66s-106.549-30.69-267.483-25.511-207.584,46.8-380.94,44.5-258.448-67.9-456.342-80.561S-2054,929.011-2054,929.011Z" transform="translate(2054 633.663)" fill="#960e12"/>
  </g>
</svg>
