<svg xmlns="http://www.w3.org/2000/svg" width="50" height="50" viewBox="0 0 50 50">
  <g id="Opensea" transform="translate(-312 -27)">
    <circle id="Ellipse_3" data-name="Ellipse 3" cx="25" cy="25" r="25" transform="translate(312 27)" fill="#16202a"/>
    <g id="Opensea-2" data-name="Opensea" transform="translate(323.071 37.906)">
      <path id="Path_8" data-name="Path 8" d="M27.439,33.511l.327,2.159,4.71.262v-1.5H28.943c1.439-1.243,3.4-3.205,3.6-5.822.458-4.579-4.579-9.093-3.663-9.943s.262-.065,2.355,0c.785,0,1.112.2,1.374,0s-.131-1.243.262-1.766a2.216,2.216,0,0,1,2.813.262c.654.85,0,1.439.131,2.551.392,2.551,4.252,2.355,5.822,5.1s.327,7-2.551,8.7a5.822,5.822,0,0,1-3.467.785l.131,1.57h4.317c5.626-4.056,7.523-4.187,8.242-3.6a1.9,1.9,0,0,1,.327,2.159c-.523.654-1.635,0-2.617.72s-.785,1.57-1.112,2.682a7.251,7.251,0,0,1-3.532,4.056H25.084a7.85,7.85,0,0,1-3.6-2.617,8.177,8.177,0,0,1-1.243-5.822Z" transform="translate(-20.136 -16.508)" fill="#e1dab9"/>
      <path id="Path_9" data-name="Path 9" d="M28.811,23.792c1.308.262,1.962,3.6,1.962,5.626a9.485,9.485,0,0,1-1.112,4.71L22.4,33.866C26,25.165,27.829,23.6,28.811,23.792Z" transform="translate(-20.919 -19.022)" fill="#e1dab9"/>
    </g>
  </g>
</svg>
