<svg xmlns="http://www.w3.org/2000/svg" width="1440" height="4280.962" viewBox="0 0 1440 4280.962">
  <path id="Roadmap_bg" data-name="Roadmap bg" d="M-132.852,4280.911c-5.687-.505-10.109-8.07-12.32-20.176a189.729,189.729,0,0,1-.317-46.4c1.694-15.678,2.749-31.515,3.16-47.412.316-18.662-5.055-33.29-16.744-39.343s-24.011-4.539-33.488,10.088-9.794,32.281-9.163,50.944,1.58,35.307,1.9,52.96A41.264,41.264,0,0,1-203.3,4256.7c-1.538,3.664-3.924,6.2-6.634,7.061-3.476,0-3.792-6.557-4.108-11.6-.684-12.072-.9-24.2-.632-36.316,0-20.174,0-39.846-3.159-59.013s-11.689-37.324-25.907-43.377-17.376,2.522-19.587,18.663a77.949,77.949,0,0,0-.948,17.149c.316,12.609,1.58,25.219,1.895,37.324a178.542,178.542,0,0,1-1.579,26.228c-1.264,8.576-4.74,10.088-9.794,6.557-6.031-4.564-9.674-14.594-9.161-25.219.632-13.619,1.58-27.237,2.527-40.855.642-21.363-6.328-41.473-18.007-51.952-7.03-6.454-15.988-3.153-20.536,7.566-1.9,4.035-3.159,8.575-5.055,12.609q-4.014,7.917-8.531,15.132c-3.475,4.539-5.687,3.531-7.9-2.522l-3.476-13.618c-2.689-10.086-8.4-17.3-15.164-19.167a3.931,3.931,0,0,0-5.28.716,11.035,11.035,0,0,0-2.618,7.354,146.766,146.766,0,0,0-.632,16.644c.632,11.6,1.58,22.7,1.9,33.794-.046,6.628-2.7,12.489-6.635,14.627-3.475,1.513-6.635-2.018-8.845-9.079s-1.264-4.035-1.264-5.548c-.105-7.916.106-15.833.632-23.707a100.037,100.037,0,0,0-2.212-38.837c-3.475-12.105-9.793-14.123-15.8-5.044a119.733,119.733,0,0,0-8.215,17.149c-2.527,5.044-4.423,11.1-6.951,15.636s-5.687,5.044-8.214-1.009-3.476-9.079-5.371-13.618-14.217-9.584-17.692,3.025a62.657,62.657,0,0,0-2.212,18.663c.948,20.175,2.843,39.847,4.423,60.022.316,7.557.316,15.139,0,22.7-.316,4.035-1.9,9.583-5.055,9.079-2.46-1.187-4.512-3.917-5.687-7.565a58.064,58.064,0,0,1-2.527-18.159c.947-15.132,2.527-30.768,4.423-45.9s4.107-31.272,2.527-47.412-11.689-28.749-23.379-21.184c-11.313,7-19.872,22.165-23.063,40.855-3.475,18.663-1.9,37.325-.316,55.987s2.844,30.263,3.16,44.891a147.555,147.555,0,0,1-2.844,28.75c-.948,5.548-2.211,12.1-6.635,13.114s-6.951-4.035-9.161-9.079a66.691,66.691,0,0,1-4.423-17.653,225.035,225.035,0,0,1,1.263-32.785c1.9-19.167,5.056-37.83,6.635-57s-6.635-40.351-21.8-44.386-21.167,9.08-17.376,30.264a82.292,82.292,0,0,1,1.58,15.131c.054,5.7-2.489,10.611-6,11.6-2.92.837-5.811-1.681-6.951-6.053a28.984,28.984,0,0,1-2.212-10.592,104.739,104.739,0,0,1,2.212-14.627c.632-6.053,1.9-11.6,2.211-17.653a20.654,20.654,0,0,0-2.428-11.529c-1.819-3.1-4.392-4.78-7.049-4.612a18.267,18.267,0,0,0-8.845,1.513,34.6,34.6,0,0,1-18.324,4.54c-5.513-.366-10.716,4.076-13.585,11.6a103.791,103.791,0,0,0-4.423,14.627c-2.212,9.584-5.371,12.1-10.741,6.053a40.41,40.41,0,0,1-4.739-8.575q-2.5-7.087-4.424-14.628c-5.687-17.149-15.164-21.184-25.273-10.088-10.307,10.779-16.764,28.775-17.376,48.421a277.734,277.734,0,0,0,2.527,32.785c1.733,9.761.441,20.256-3.475,28.245-4.108,8.576-8.531,8.576-12.005-1.008a95.221,95.221,0,0,1-4.739-41.36c.947-10.592,2.211-20.68,2.843-31.271s-3.475-25.724-11.057-27.237c-6.735-2.023-13.7-.049-19.588,5.549-8.529,8.069-12.321,20.68-15.164,35.306a281.544,281.544,0,0,0-2.843,67.588,223.561,223.561,0,0,1-1.264,32.28c0,4.736-2.405,8.575-5.371,8.575-3.077.107-5.913-2.648-7.267-7.061a35.7,35.7,0,0,1-1.264-8.071c-.316-8.069-.632-16.644-.632-24.713s1.58-30.768.948-45.9c-.113-14.652-3.47-28.769-9.477-39.846-9.163-16.141-32.225-12.105-35.7,13.113a154.192,154.192,0,0,0-1.9,29.76c1.264,22.7,3.159,45.395,4.423,68.092A88.593,88.593,0,0,1-798.2,4268.8c-2.217,7.7-7.407,12.054-12.637,10.593-4.831-.185-8.856-5.967-9.479-13.619a172.311,172.311,0,0,1-.947-25.724c.631-12.105,2.211-24.211,2.843-36.316a148.083,148.083,0,0,0-3.475-47.412c-3.476-14.124-10.11-19.67-18.956-15.636s-14.217,12.1-13.269,27.741a86.5,86.5,0,0,1-2.527,23.706c-.948,5.549-4.108,5.549-6.319.5a48.644,48.644,0,0,1-3.476-12.61c-.948-7.565-.948-15.131-1.58-23.2s-1.895-18.662-8.529-22.7c-5.625-4.045-12.109-3.7-17.55.943s-9.229,13.049-10.251,22.763a43.589,43.589,0,0,0-.632,9.079l.948,51.952c.316,11.1.632,22.193.316,33.289,0,3.027-2.212,6.557-3.792,8.071a3.358,3.358,0,0,1-3.914-.046,7.537,7.537,0,0,1-2.72-4.494,44.582,44.582,0,0,1-2.843-14.123c-.527-16.3-.421-32.644.316-48.925,1.58-23.707-1.264-44.386-11.057-62.543-4.9-10.727-12.55-17.389-20.852-18.159-12.637-1.008-21.483,7.566-19.587,31.273q1.262,15.13,3.791,30.263a71.289,71.289,0,0,1-1.9,31.776c-2.527,6.557-5.687,13.619-11.057,12.105s-6.951-9.079-8.213-16.646.631-22.7,2.211-33.793c3.122-25.167-3.948-50.764-17.692-64.057-8.845-8.071-15.48-6.053-21.167,8.07l-7.267,20.175c-5.687,14.124-11.057,13.619-16.428-.5a245.631,245.631,0,0,0-9.162-24.715c-3.159-7.061-6.95-9.08-10.109-6.053-4.33,2.265-7.176,8.875-6.951,16.141.632,8.574,1.264,17.149,1.58,25.724.105,8.082-.105,16.169-.632,24.21-.632,9.583-4.423,12.1-9.793,8.069-3.682-2.389-5.979-8.3-5.687-14.626q-.316-12.867.316-25.724c.316-13.113,2.527-25.724-.632-38.333-1.58-5.044-2.528-11.6-6.319-12.609s-6.951,4.035-8.847,9.079-7.581,18.663-11.689,28.246-8.845,10.088-14.532,3.026-5.371-9.079-8.214-13.115-7.9-7.061-11.057,3.027a110.861,110.861,0,0,0-3.475,36.82c1.263,15.636,3.475,30.768,5.371,46.4.948,7.565,1.9,15.132-.316,22.193s-6.635,9.079-10.425,2.018c-3.153-5.667-4.746-13.119-4.424-20.68.632-15.636,1.9-31.776,3.476-47.413s4.423-32.28,3.475-49.429-12.637-31.272-24.958-20.68c-10.3,8.479-18.036,23.2-21.483,40.856-3.791,19.167-2.212,38.333-.632,57.5s2.844,28.75,3.476,42.872c1.087,13.321-1.707,26.7-7.583,36.316-3.792,6.053-7.583,5.044-10.425-2.018a110.57,110.57,0,0,1-3.16-11.6c-2.843-16.14-.632-31.776.948-47.412,2.354-18.475,3.937-37.177,4.739-55.987.948-22.193-5.371-33.793-18.008-37.829a15.878,15.878,0,0,0-6.635-1.513c-10.109.505-17.692,8.575-15.48,27.237a118.533,118.533,0,0,1,1.58,18.663c.632,7.565-1.58,11.1-6.635,11.1s-6.635-4.035-6.635-12.1c.483-10.185,1.434-20.3,2.844-30.263,1.579-15.132-3.16-24.715-12.637-23.2a138.175,138.175,0,0,0-27.171,9.584,25.539,25.539,0,0,0-8.529,11.1c-2.528,5.547-4.423,12.1-6.635,18.157s-5.055,8.07-8.847,1.008-7.9-16.644-12-25.219-14.849-16.645-23.38-6.557-16.744,29.254-16.428,50.942c0,13.115,1.58,26.733,2.212,39.848a48.209,48.209,0,0,1-.948,13.618c-1.842,7.423-6.373,12.246-11.373,12.1-5.055-1.009-6.319-8.069-6.635-14.626-.421-14.129-.21-28.289.632-42.369.632-11.6,1.58-22.7-.632-33.793-1.87-12.073-9.477-19.5-17.06-16.645-10.783,2.474-20.053,13.48-24.643,29.254-7.267,24.21-7.267,49.43-5.687,75.154.789,11.555,1.106,23.181.948,34.8,0,4.69-1.838,8.878-4.6,10.462s-5.854.224-7.719-3.4a30.394,30.394,0,0,1-4.107-13.62q-.316-13.873.316-27.741c1.264-19.166,2.843-38.332-.316-57.5s-8.531-28.75-19.588-32.281a31.91,31.91,0,0,0-13.585-2.017c-15.164,1.513-24.642,18.157-24.326,42.368.161,9.981.794,19.93,1.895,29.759.948,15.636,2.528,31.777,3.16,47.412.3,10.833-1.957,21.449-6.319,29.76-3.714,7.093-10.282,8.209-14.849,2.521-5.7-6.448-9.287-16.623-9.793-27.741a233.329,233.329,0,0,1,1.9-46.908c3.159-25.724,6-50.943,3.475-77.17s-6.635-41.36-16.744-57V0H-112V4083.7c-7.73,20.833-11.259,44.957-10.11,69.1,1.264,21.689,3.476,43.377,5.372,65.065s1.895,30.264-1.9,45.4c-3.54,14.131-7.908,17.7-13.1,17.7C-132.1,4280.962-132.476,4280.944-132.852,4280.911Z" transform="translate(1552)" fill="#fede91"/>
</svg>
