<svg xmlns="http://www.w3.org/2000/svg" width="50" height="50" viewBox="0 0 50 50">
  <g id="Twitter" transform="translate(-541 -27)">
    <circle id="Ellipse_7" data-name="Ellipse 7" cx="25" cy="25" r="25" transform="translate(541 27)" fill="#16202a"/>
    <path id="Path_17" data-name="Path 17" d="M15.362,21.711c2.277-1.168,6.363,6.48,11.968,5.955,1.051-.117,2.51-.584,2.51-.876s-1.81-.175-2.218-.934,1.81-5.488,5.312-5.663a4.723,4.723,0,0,1,4.787,2.51c2.51-1.81,3.911-2.627,4.262-2.277s-.35,1.284-1.693,3.152c2.335-.525,2.977-.525,3.036-.35s-2.394,1.168-3.444,3.5a5.371,5.371,0,0,0-.467,2.51c0,3.152-3.036,10.508-9.341,13.544-7.356,3.5-15-.876-15.7-1.284,6.13-1.635,7.3-2.16,7.239-2.394s-1.868.234-3.5-.817-2.394-3.036-1.81-3.678,1.576.117,1.693-.117-2.16-.817-3.036-2.627-.525-2.861,0-3.094,1.343.817,1.459.7-1.751-1.927-2.043-4.2C14.253,24.28,14.311,22.237,15.362,21.711Z" transform="translate(537.174 19.841)" fill="#e1dab9"/>
  </g>
</svg>
